<svg xmlns="http://www.w3.org/2000/svg" width="100" height="100" viewBox="0 0 100 100">
  <!-- Függőleges szár, felső rész - csak felül lekerekítve -->
  <path d="M45,12 
           a2,2 0 0 1 2,-2 
           h6 
           a2,2 0 0 1 2,2 
           v23 
           h-10 
           z" 
        fill="#334155" fill-opacity="0.03"/>
           
  <!-- Függőleges szár, alsó rész - csak alul lekerekítve -->
  <path d="M45,45 
           h10 
           v43 
           a2,2 0 0 1 -2,2 
           h-6 
           a2,2 0 0 1 -2,-2 
           z" 
        fill="#334155" fill-opacity="0.03"/>
           
  <!-- Vízszintes szár - mindkét oldalon lekerekítve -->
  <path d="M20,37 
          a2,2 0 0 1 2,-2 
          h56
          a2,2 0 0 1 2,2 
          v6 
          a2,2 0 0 1 -2,2 
          h-56
          a2,2 0 0 1 -2,-2 
          z" 
        fill="#334155" fill-opacity="0.03"/>
</svg>